<svg xmlns="http://www.w3.org/2000/svg" xmlns:xlink="http://www.w3.org/1999/xlink"
    width="1615.982421875" height="575.27734375">
    <path fill="white" stroke="white"
        d="M154.16 432.47L154.16 432.47Q200.34 432.47 244.64 362.70Q288.94 292.92 326.08 130.04L326.08 130.04Q342.65 57.76 342.65 32.41L342.65 32.41Q342.65 30.90 342.27 23.50Q341.89 16.10 336.50 10.95Q331.10 5.81 320.81 5.81L320.81 5.81Q311.78 5.81 306.25 10.70Q300.73 15.59 295.71 30.65Q290.69 45.71 283.92 75.08L283.92 75.08Q263.59 161.16 240.12 228.17Q216.66 295.18 193.94 334.08Q171.23 372.99 153.66 372.99L153.66 372.99Q143.37 372.99 127.43 345.50Q111.50 318.02 100.20 279.87L100.20 279.87Q96.94 268.33 94.93 263.06L94.93 263.06Q87.40 239.21 78.12 185.51Q68.83 131.80 62.05 71.81L62.05 71.81Q57.54 30.15 47.00 16.85L47.00 16.85Q41.22 9.82 32.44 9.82L32.44 9.82Q25.16 9.82 15.87 14.84L15.87 14.84Q2.32 20.61 2.32 56.25L2.32 56.25L2.32 75.83Q2.32 94.65 16.38 180.24L16.38 180.24Q20.14 203.07 23.28 218.89Q26.42 234.70 32.69 261.30L32.69 261.30Q68.08 410.63 135.59 429.96L135.59 429.96Q144.88 432.47 154.16 432.47ZM421.20 426.69L421.20 426.69Q429.99 426.69 436.64 416.66Q443.29 406.62 445.55 365.46L445.55 365.46Q446.80 342.12 446.80 305.47L446.80 305.47Q446.80 278.12 446.05 243.23L446.05 243.23Q445.29 184.75 443.41 156.14Q441.53 127.53 436.76 117.99L436.76 117.99Q430.99 106.70 416.68 106.70L416.68 106.70Q405.14 106.70 398.61 122.01L398.61 122.01Q390.33 141.33 390.33 221.90L390.33 221.90Q390.33 269.08 392.59 341.61L392.59 341.61Q393.59 377.25 395.10 394.44Q396.61 411.64 400.37 417.53Q404.13 423.43 411.92 424.94L411.92 424.94Q416.93 426.69 421.20 426.69ZM410.16 67.80L410.16 67.80Q421.20 67.80 425.97 65.54L425.97 65.54Q446.55 53.49 446.55 32.41L446.55 32.41Q446.55 22.62 439.90 12.33Q433.25 2.04 415.43 1.29L415.43 1.29Q397.86 1.79 388.83 14.09L388.83 14.09Q381.30 24.38 381.30 36.68L381.30 36.68Q381.30 39.19 382.30 47.97Q383.30 56.75 398.36 66.04L398.36 66.04Q402.38 67.80 410.16 67.80ZM558.49 425.69L558.49 425.69Q574.30 425.69 582.08 411.89L582.08 411.89Q584.84 403.60 584.84 315.51L584.84 315.51Q584.84 271.84 583.71 209.22Q582.58 146.60 580.32 88.63Q578.06 30.65 575.55 19.61L575.55 19.61Q568.02 1.29 553.21 1.29L553.21 1.29Q538.16 1.54 531.38 19.86L531.38 19.86Q529.12 30.65 529.12 136.31L529.12 136.31Q529.12 166.68 529.37 218.38Q529.62 270.08 530.75 326.30Q531.88 382.52 533.39 397.08L533.39 397.08Q535.90 417.91 549.20 423.68L549.20 423.68Q553.72 425.69 558.49 425.69ZM699.28 425.69L699.28 425.69Q715.09 425.69 722.88 411.89L722.88 411.89Q725.64 403.60 725.64 315.51L725.64 315.51Q725.64 271.84 724.51 209.22Q723.38 146.60 721.12 88.63Q718.86 30.65 716.35 19.61L716.35 19.61Q708.82 1.29 694.01 1.29L694.01 1.29Q678.95 1.54 672.18 19.86L672.18 19.86Q669.92 30.65 669.92 136.31L669.92 136.31Q669.92 166.68 670.17 218.38Q670.42 270.08 671.55 326.30Q672.68 382.52 674.19 397.08L674.19 397.08Q676.70 417.91 690.00 423.68L690.00 423.68Q694.51 425.69 699.28 425.69ZM1027.56 434.22L1027.56 434.22Q1034.34 434.22 1042.49 428.70Q1050.65 423.18 1052.41 410.13L1052.41 410.13L1052.66 406.87Q1052.66 396.08 1042.12 386.79L1042.12 386.79L1012.25 362.95Q1003.97 356.17 985.90 342.12L985.90 342.12Q954.53 317.77 947.75 312.25L947.75 312.25Q946.75 311.25 931.69 299.70L931.69 299.70L917.88 289.41Q908.85 282.88 908.85 280.63L908.85 280.63Q908.85 278.87 911.48 276.11Q914.12 273.35 928.17 261.30L928.17 261.30Q1019.28 182.49 1019.28 154.38L1019.28 154.38Q1019.28 151.62 1018.53 149.37L1018.53 149.37Q1013.25 135.31 1002.96 135.31L1002.96 135.31Q999.70 135.31 990.17 138.70Q980.63 142.09 946.50 175.22L946.50 175.22Q871.96 245.99 865.68 245.99L865.68 245.99L865.18 245.74Q863.92 242.23 862.67 148.36L862.67 148.36Q862.42 99.42 861.67 71.19Q860.91 42.95 859.03 29.27Q857.15 15.59 853.13 10.70Q849.12 5.81 842.34 3.55L842.34 3.55Q837.07 1.79 832.80 1.79L832.80 1.79Q812.72 1.79 809.46 36.17L809.46 36.17Q808.46 51.48 808.46 91.64L808.46 91.64Q808.46 147.86 809.96 227.42L809.96 227.42Q812.98 382.02 815.99 402.60L815.99 402.60Q820.50 421.93 834.31 426.19L834.31 426.19Q837.32 426.95 840.33 426.95L840.33 426.95Q850.87 426.95 860.41 415.65L860.41 415.65Q864.43 411.13 865.18 398.33L865.18 398.33Q865.68 393.31 865.68 385.28L865.68 385.28Q865.68 373.49 864.68 355.17L864.68 355.17L864.68 353.16Q863.67 334.84 863.67 325.55L863.67 325.55Q863.67 314.01 866.18 314.01L866.18 314.01Q866.43 314.01 868.06 314.26Q869.70 314.51 876.47 321.03L876.47 321.03L877.23 321.28L905.59 344.88L915.12 352.41Q937.46 370.73 957.79 386.79L957.79 386.79L998.70 419.17Q1006.98 425.44 1007.23 426.44L1007.23 426.44Q1008.74 427.95 1014.76 431.21L1014.76 431.21Q1021.54 434.22 1027.56 434.22ZM1186.18 428.45L1186.18 428.45Q1216.29 428.45 1250.43 405.49Q1284.56 382.52 1314.43 323.79L1314.43 323.79Q1325.47 302.71 1325.47 292.42L1325.47 292.42Q1325.47 282.13 1315.68 275.61L1315.68 275.61Q1308.91 270.59 1302.63 270.59L1302.63 270.59Q1298.62 270.59 1291.46 274.23Q1284.31 277.87 1270.00 299.20L1270.00 299.20Q1221.31 370.98 1184.42 370.98L1184.42 370.98Q1174.13 370.98 1164.84 365.46L1164.84 365.46Q1149.28 355.92 1138.74 336.22Q1128.20 316.52 1127.45 295.94L1127.45 295.94L1127.20 283.89L1141.50 282.63Q1189.19 278.62 1226.33 262.68Q1263.48 246.74 1285.31 224.16L1285.31 224.16Q1308.65 199.56 1308.65 174.21L1308.65 174.21Q1308.65 151.62 1286.82 131.80L1286.82 131.80Q1259.71 109.21 1224.83 109.21L1224.83 109.21Q1221.06 109.21 1199.23 110.84Q1177.39 112.47 1141.13 138.07Q1104.86 163.67 1085.29 207.34L1085.29 207.34Q1069.72 244.49 1069.72 281.63L1069.72 281.63Q1069.72 290.67 1072.61 318.52Q1075.50 346.38 1099.84 380.89Q1124.19 415.40 1163.59 425.94L1163.59 425.94Q1174.88 428.45 1186.18 428.45ZM1139.50 231.94L1139.50 231.94Q1135.48 231.94 1135.48 229.43L1135.48 229.43Q1135.48 226.92 1138.24 221.65L1138.24 221.65Q1156.56 187.26 1188.69 170.95L1188.69 170.95Q1207.76 161.16 1224.83 161.16L1224.83 161.16Q1236.62 161.16 1247.42 165.68L1247.42 165.68Q1254.44 169.69 1254.44 174.96L1254.44 174.96Q1254.44 179.48 1247.04 188.52Q1239.64 197.55 1213.91 209.98Q1188.19 222.40 1154.55 229.43L1154.55 229.43Q1144.01 231.94 1139.50 231.94ZM1469.78 575.27L1477.56 575.27Q1483.33 575.02 1492.12 574.27Q1500.90 573.52 1503.91 572.51L1503.91 572.51Q1558.63 550.17 1584.60 487.68Q1610.58 425.19 1612.34 311.75L1612.34 311.75L1612.59 280.12Q1612.59 130.54 1583.22 116.24L1583.22 116.24Q1577.45 113.48 1572.43 113.48L1572.43 113.48Q1564.90 113.48 1557.87 122.01Q1550.85 130.54 1544.32 163.67L1544.32 163.67Q1534.78 209.60 1526.75 237.21L1526.75 237.21Q1523.99 246.24 1521.98 254.78L1521.98 254.78Q1521.48 258.54 1519.73 260.30L1519.73 260.30Q1518.22 260.80 1518.22 264.56Q1518.22 268.33 1516.96 270.34L1516.96 270.34Q1516.21 271.09 1513.45 278.62L1513.45 278.62L1509.94 288.91Q1507.68 293.43 1505.17 299.95L1505.17 299.95Q1496.38 321.28 1485.97 334.33Q1475.55 347.39 1467.27 347.39L1467.27 347.39Q1458.74 347.39 1446.44 324.30L1446.44 324.30Q1426.36 286.65 1418.08 224.91L1418.08 224.91Q1413.56 192.53 1413.56 172.46L1413.56 172.46Q1413.56 167.69 1413.94 164.67Q1414.32 161.66 1414.32 158.65L1414.32 158.65Q1414.32 144.85 1405.03 136.82L1405.03 136.82Q1398.75 131.29 1391.23 131.29L1391.23 131.29Q1385.70 131.29 1379.18 134.31L1379.18 134.31Q1362.87 145.35 1362.87 192.78L1362.87 192.78Q1362.87 238.46 1379.18 299.95L1379.18 299.95Q1395.99 359.68 1425.11 385.03L1425.11 385.03Q1445.44 402.60 1467.27 402.60L1467.27 402.60Q1476.81 402.60 1497.77 395.45Q1518.72 388.29 1544.32 338.35L1544.32 338.35Q1551.35 323.29 1553.61 323.29L1553.61 323.29Q1554.86 323.29 1554.86 331.32L1554.86 331.32Q1554.86 338.60 1553.86 352.66L1553.86 352.66Q1542.31 519.56 1472.79 519.56L1472.79 519.56Q1453.47 519.56 1429.37 506.50L1429.37 506.50Q1416.57 499.48 1406.54 499.48L1406.54 499.48Q1402.02 499.48 1393.74 502.49Q1385.45 505.50 1385.45 522.07L1385.45 522.07Q1385.45 535.62 1409.04 552.06Q1432.64 568.50 1460.75 574.77L1460.75 574.77Q1464.01 575.27 1469.78 575.27L1469.78 575.27Z" />
</svg>